# File produced by Open Asset Import Library (http://www.assimp.sf.net)
# (assimp v3.0.1262)

mtllib ROV.stl.obj.mtl

# 36 vertex positions
v  50 0 50
v  50 0 -50
v  50 80 50
v  50 80 50
v  50 0 -50
v  50 80 -50
v  -50 0 50
v  50 0 50
v  -50 80 50
v  -50 80 50
v  50 0 50
v  50 80 50
v  -50 0 -50
v  -50 0 50
v  -50 80 -50
v  -50 80 -50
v  -50 0 50
v  -50 80 50
v  50 0 -50
v  -50 0 -50
v  50 80 -50
v  50 80 -50
v  -50 0 -50
v  -50 80 -50
v  -50 80 -50
v  -50 80 50
v  50 80 -50
v  50 80 -50
v  -50 80 50
v  50 80 50
v  -50 0 -50
v  50 0 -50
v  -50 0 50
v  -50 0 50
v  50 0 -50
v  50 0 50

# 0 UV coordinates

# 36 vertex normals
vn 1 -0 0
vn 1 -0 0
vn 1 -0 0
vn 1 -0 0
vn 1 -0 0
vn 1 0 0
vn 0 0 1
vn 0 0 1
vn 0 0 1
vn 0 0 1
vn 0 0 1
vn -0 0 1
vn -1 0 0
vn -1 0 0
vn -1 0 0
vn -1 0 0
vn -1 0 0
vn -1 0 0
vn 0 0 -1
vn 0 0 -1
vn 0 0 -1
vn 0 0 -1
vn 0 0 -1
vn -0 0 -1
vn 0 1 0
vn 0 1 0
vn 0 1 0
vn 0 1 0
vn 0 1 0
vn 0 1 -0
vn 0 -1 0
vn 0 -1 0
vn 0 -1 0
vn 0 -1 0
vn 0 -1 0
vn 0 -1 0

# Mesh '<STL_BINARY>' with 12 faces
g <STL_BINARY>
usemtl DefaultMaterial
f  1//1 2//2 3//3
f  4//4 5//5 6//6
f  7//7 8//8 9//9
f  10//10 11//11 12//12
f  13//13 14//14 15//15
f  16//16 17//17 18//18
f  19//19 20//20 21//21
f  22//22 23//23 24//24
f  25//25 26//26 27//27
f  28//28 29//29 30//30
f  31//31 32//32 33//33
f  34//34 35//35 36//36

